<svg width="24" height="24" viewBox="0 0 24 24" fill="none" xmlns="http://www.w3.org/2000/svg">
<g id="campaign_FILL0_wght400_GRAD0_opsz24 1">
<path id="Vector" d="M20.1 12.7475H18.3C18.045 12.7475 17.8313 12.6613 17.6588 12.4888C17.4863 12.3163 17.4 12.1025 17.4 11.8475C17.4 11.5925 17.4863 11.3788 17.6588 11.2063C17.8313 11.0338 18.045 10.9475 18.3 10.9475H20.1C20.355 10.9475 20.5688 11.0338 20.7413 11.2063C20.9138 11.3788 21 11.5925 21 11.8475C21 12.1025 20.9138 12.3163 20.7413 12.4888C20.5688 12.6613 20.355 12.7475 20.1 12.7475ZM16.14 16.1675C16.29 15.9575 16.485 15.8375 16.725 15.8075C16.965 15.7775 17.19 15.8375 17.4 15.9875L18.84 17.0675C19.05 17.2175 19.17 17.4125 19.2 17.6525C19.23 17.8925 19.17 18.1175 19.02 18.3275C18.87 18.5375 18.675 18.6575 18.435 18.6875C18.195 18.7175 17.97 18.6575 17.76 18.5075L16.32 17.4275C16.11 17.2775 15.99 17.0825 15.96 16.8425C15.93 16.6025 15.99 16.3775 16.14 16.1675ZM18.84 6.6275L17.4 7.7075C17.19 7.8575 16.965 7.9175 16.725 7.8875C16.485 7.8575 16.29 7.7375 16.14 7.5275C15.99 7.3175 15.93 7.0925 15.96 6.8525C15.99 6.6125 16.11 6.4175 16.32 6.2675L17.76 5.1875C17.97 5.0375 18.195 4.9775 18.435 5.0075C18.675 5.0375 18.87 5.1575 19.02 5.3675C19.17 5.5775 19.23 5.8025 19.2 6.0425C19.17 6.2825 19.05 6.4775 18.84 6.6275ZM5.7 14.5475H4.8C4.305 14.5475 3.88125 14.3713 3.52875 14.0188C3.17625 13.6663 3 13.2425 3 12.7475V10.9475C3 10.4525 3.17625 10.0287 3.52875 9.67625C3.88125 9.32375 4.305 9.1475 4.8 9.1475H8.4L11.5275 7.2575C11.8275 7.0775 12.1313 7.0775 12.4388 7.2575C12.7463 7.4375 12.9 7.7 12.9 8.045V15.65C12.9 15.995 12.7463 16.2575 12.4388 16.4375C12.1313 16.6175 11.8275 16.6175 11.5275 16.4375L8.4 14.5475H7.5V17.2475C7.5 17.5025 7.41375 17.7163 7.24125 17.8888C7.06875 18.0612 6.855 18.1475 6.6 18.1475C6.345 18.1475 6.13125 18.0612 5.95875 17.8888C5.78625 17.7163 5.7 17.5025 5.7 17.2475V14.5475ZM11.1 14.0525V9.6425L8.895 10.9475H4.8V12.7475H8.895L11.1 14.0525ZM13.8 14.8625V8.8325C14.205 9.1925 14.5312 9.63125 14.7788 10.1488C15.0263 10.6663 15.15 11.2325 15.15 11.8475C15.15 12.4625 15.0263 13.0288 14.7788 13.5463C14.5312 14.0638 14.205 14.5025 13.8 14.8625Z" fill="white"/>
</g>
</svg>
