<svg width="25" height="24" viewBox="0 0 25 24" fill="none" xmlns="http://www.w3.org/2000/svg">
<g id="devices_FILL0_wght400_GRAD0_opsz24 1">
<path id="Vector" d="M4.35 19.4C3.975 19.4 3.65625 19.2687 3.39375 19.0062C3.13125 18.7437 3 18.425 3 18.05C3 17.675 3.13125 17.3562 3.39375 17.0937C3.65625 16.8312 3.975 16.7 4.35 16.7H4.8V6.8C4.8 6.305 4.97625 5.88125 5.32875 5.52875C5.68125 5.17625 6.105 5 6.6 5H19.2C19.455 5 19.6688 5.08625 19.8413 5.25875C20.0138 5.43125 20.1 5.645 20.1 5.9C20.1 6.155 20.0138 6.36875 19.8413 6.54125C19.6688 6.71375 19.455 6.8 19.2 6.8H6.6V16.7H10.65C11.025 16.7 11.3438 16.8312 11.6063 17.0937C11.8688 17.3562 12 17.675 12 18.05C12 18.425 11.8688 18.7437 11.6063 19.0062C11.3438 19.2687 11.025 19.4 10.65 19.4H4.35ZM14.7 19.4C14.445 19.4 14.2313 19.3137 14.0588 19.1412C13.8863 18.9687 13.8 18.755 13.8 18.5V9.5C13.8 9.245 13.8863 9.03125 14.0588 8.85875C14.2313 8.68625 14.445 8.6 14.7 8.6H20.1C20.355 8.6 20.5688 8.68625 20.7413 8.85875C20.9138 9.03125 21 9.245 21 9.5V18.5C21 18.755 20.9138 18.9687 20.7413 19.1412C20.5688 19.3137 20.355 19.4 20.1 19.4H14.7ZM15.6 16.7H19.2V10.4H15.6V16.7Z" fill="white"/>
</g>
</svg>
