<svg width="25" height="24" viewBox="0 0 25 24" fill="none" xmlns="http://www.w3.org/2000/svg">
<g id="featured_seasonal_and_gifts_FILL0_wght400_GRAD0_opsz24 1">
<path id="Vector" d="M4.71429 19.2857V11.5714C4.24286 11.5714 3.83929 11.4036 3.50357 11.0679C3.16786 10.7321 3 10.3286 3 9.85714V8.14286C3 7.67143 3.16786 7.26786 3.50357 6.93214C3.83929 6.59643 4.24286 6.42857 4.71429 6.42857H7.45714C7.38571 6.3 7.33929 6.16429 7.31786 6.02143C7.29643 5.87857 7.28571 5.72857 7.28571 5.57143C7.28571 4.85714 7.53571 4.25 8.03571 3.75C8.53571 3.25 9.14286 3 9.85714 3C10.1857 3 10.4929 3.06071 10.7786 3.18214C11.0643 3.30357 11.3286 3.47143 11.5714 3.68571C11.8143 3.45714 12.0786 3.28571 12.3643 3.17143C12.65 3.05714 12.9571 3 13.2857 3C14 3 14.6071 3.25 15.1071 3.75C15.6071 4.25 15.8571 4.85714 15.8571 5.57143C15.8571 5.72857 15.8429 5.875 15.8143 6.01071C15.7857 6.14643 15.7429 6.28571 15.6857 6.42857H18.4286C18.9 6.42857 19.3036 6.59643 19.6393 6.93214C19.975 7.26786 20.1429 7.67143 20.1429 8.14286V9.85714C20.1429 10.3286 19.975 10.7321 19.6393 11.0679C19.3036 11.4036 18.9 11.5714 18.4286 11.5714V19.2857C18.4286 19.7571 18.2607 20.1607 17.925 20.4964C17.5893 20.8321 17.1857 21 16.7143 21H6.42857C5.95714 21 5.55357 20.8321 5.21786 20.4964C4.88214 20.1607 4.71429 19.7571 4.71429 19.2857ZM13.2857 4.71429C13.0429 4.71429 12.8393 4.79643 12.675 4.96071C12.5107 5.125 12.4286 5.32857 12.4286 5.57143C12.4286 5.81429 12.5107 6.01786 12.675 6.18214C12.8393 6.34643 13.0429 6.42857 13.2857 6.42857C13.5286 6.42857 13.7321 6.34643 13.8964 6.18214C14.0607 6.01786 14.1429 5.81429 14.1429 5.57143C14.1429 5.32857 14.0607 5.125 13.8964 4.96071C13.7321 4.79643 13.5286 4.71429 13.2857 4.71429ZM9 5.57143C9 5.81429 9.08214 6.01786 9.24643 6.18214C9.41071 6.34643 9.61429 6.42857 9.85714 6.42857C10.1 6.42857 10.3036 6.34643 10.4679 6.18214C10.6321 6.01786 10.7143 5.81429 10.7143 5.57143C10.7143 5.32857 10.6321 5.125 10.4679 4.96071C10.3036 4.79643 10.1 4.71429 9.85714 4.71429C9.61429 4.71429 9.41071 4.79643 9.24643 4.96071C9.08214 5.125 9 5.32857 9 5.57143ZM4.71429 8.14286V9.85714H10.7143V8.14286H4.71429ZM10.7143 19.2857V11.5714H6.42857V19.2857H10.7143ZM12.4286 19.2857H16.7143V11.5714H12.4286V19.2857ZM18.4286 9.85714V8.14286H12.4286V9.85714H18.4286Z" fill="white"/>
</g>
</svg>
