<svg width="38" height="38" viewBox="0 0 38 38" fill="none" xmlns="http://www.w3.org/2000/svg">
<g id="app_promo_FILL0_wght400_GRAD0_opsz24 1">
<path id="Vector" d="M17.2727 17.8989V13.8182C17.2727 13.4511 17.3969 13.1435 17.6452 12.8952C17.8935 12.6469 18.2011 12.5227 18.5682 12.5227C18.9352 12.5227 19.2429 12.6469 19.4912 12.8952C19.7395 13.1435 19.8636 13.4511 19.8636 13.8182V17.8989L21.0295 16.7653C21.267 16.5278 21.5639 16.4091 21.9202 16.4091C22.2764 16.4091 22.5841 16.5386 22.8432 16.7977C23.0807 17.0352 23.1994 17.3375 23.1994 17.7045C23.1994 18.0716 23.0807 18.3739 22.8432 18.6114L19.475 21.9795C19.2159 22.2386 18.9136 22.3682 18.5682 22.3682C18.2227 22.3682 17.9205 22.2386 17.6614 21.9795L14.2932 18.6114C14.0557 18.3739 13.9315 18.077 13.9207 17.7207C13.9099 17.3645 14.0341 17.0568 14.2932 16.7977C14.5307 16.5602 14.8276 16.4361 15.1838 16.4253C15.5401 16.4145 15.8477 16.5278 16.1068 16.7653L17.2727 17.8989ZM12.0909 33.25C11.3784 33.25 10.7685 32.9963 10.2611 32.4889C9.75369 31.9815 9.5 31.3716 9.5 30.6591V7.34091C9.5 6.62841 9.75369 6.01847 10.2611 5.51108C10.7685 5.00369 11.3784 4.75 12.0909 4.75H25.0455C25.758 4.75 26.3679 5.00369 26.8753 5.51108C27.3827 6.01847 27.6364 6.62841 27.6364 7.34091V30.6591C27.6364 31.3716 27.3827 31.9815 26.8753 32.4889C26.3679 32.9963 25.758 33.25 25.0455 33.25H12.0909ZM12.0909 26.7727V30.6591H25.0455V26.7727H12.0909ZM12.0909 24.1818H25.0455V11.2273H12.0909V24.1818ZM12.0909 8.63636H25.0455V7.34091H12.0909V8.63636ZM16.625 29.3636H20.5114C20.6841 29.3636 20.8352 29.2989 20.9648 29.1693C21.0943 29.0398 21.1591 28.8886 21.1591 28.7159C21.1591 28.5432 21.0943 28.392 20.9648 28.2625C20.8352 28.133 20.6841 28.0682 20.5114 28.0682H16.625C16.4523 28.0682 16.3011 28.133 16.1716 28.2625C16.042 28.392 15.9773 28.5432 15.9773 28.7159C15.9773 28.8886 16.042 29.0398 16.1716 29.1693C16.3011 29.2989 16.4523 29.3636 16.625 29.3636Z" fill="url(#paint0_linear_509_13313)"/>
</g>
<defs>
<linearGradient id="paint0_linear_509_13313" x1="18.5682" y1="4.75" x2="18.5682" y2="33.25" gradientUnits="userSpaceOnUse">
<stop stop-color="#FFD270"/>
<stop offset="1" stop-color="#9A7525"/>
</linearGradient>
</defs>
</svg>
