<svg width="39" height="38" viewBox="0 0 39 38" fill="none" xmlns="http://www.w3.org/2000/svg">
<g id="sports_soccer_FILL0_wght400_GRAD0_opsz24 1" clip-path="url(#clip0_509_13331)">
<path id="Union" fill-rule="evenodd" clip-rule="evenodd" d="M25.4785 8C25.6395 8.13715 25.7535 8.40459 25.8206 8.80233C25.9011 9.20006 25.9347 9.63209 25.9213 10.0984C25.9078 10.551 25.8408 10.9624 25.72 11.3328C25.5992 11.6893 25.4248 11.9019 25.1967 11.9705C25.1028 11.9979 24.9082 12.0391 24.6131 12.0939C24.3313 12.1351 24.0697 12.1899 23.8282 12.2585C23.6001 12.3271 23.2982 12.4437 22.9225 12.6082C22.5468 12.7728 22.2248 13.0128 21.9564 13.3283C21.7418 13.5889 21.5673 13.8632 21.4332 14.1512C21.299 14.4255 21.2252 14.7821 21.2118 15.221C21.1984 15.3993 21.1916 15.7353 21.1916 16.229V17.916V19.7881C21.2051 20.4052 21.2118 20.9333 21.2118 21.3721V22.1539C21.1984 22.5654 21.2386 22.9151 21.3325 23.2031C21.4264 23.4911 21.5271 23.6626 21.6344 23.7174C21.299 23.978 20.9635 24.1974 20.6281 24.3757C20.3061 24.554 19.8432 24.6843 19.2394 24.7666C19.0113 24.7941 18.7564 24.7255 18.4746 24.5609C18.1929 24.41 17.9446 24.17 17.73 23.8409C17.5287 23.498 17.4214 23.0797 17.4079 22.5859C17.4079 22.0922 17.4012 21.4613 17.3878 20.6933V18.1628C17.4012 17.2439 17.4012 16.325 17.3878 15.4061C17.3744 15.0084 17.314 14.6312 17.2067 14.2746C17.1128 13.918 16.9518 13.6094 16.7237 13.3489C16.4956 13.0746 16.1937 12.8483 15.818 12.67C15.4423 12.4917 14.9727 12.3751 14.4092 12.3202C14.2616 12.3065 14.0603 12.2654 13.8054 12.1968C13.5505 12.1282 13.376 12.0596 13.2821 11.9911C13.1345 11.8814 13.0138 11.6756 12.9198 11.3739C12.8259 11.0585 12.7521 10.7156 12.6985 10.3453C12.6448 9.96125 12.6045 9.58409 12.5777 9.21378C12.5643 8.84347 12.5643 8.54174 12.5777 8.30859C12.6314 8.3223 12.779 8.34288 13.0205 8.37031C13.2754 8.39774 13.5773 8.42517 13.9261 8.4526C14.275 8.46631 14.6171 8.48003 14.9526 8.49374C15.1941 8.50746 15.5161 8.52117 15.9186 8.53489C16.3346 8.5486 16.7773 8.56232 17.2469 8.57603C17.7165 8.58975 18.1593 8.60346 18.5753 8.61718H19.6017C19.964 8.60346 20.3866 8.58975 20.8696 8.57603C21.3526 8.56232 21.8155 8.5486 22.2583 8.53489C22.7145 8.50746 23.0768 8.48003 23.3451 8.4526C23.6135 8.42517 23.8952 8.39088 24.1904 8.34973C24.499 8.29487 24.7674 8.24001 24.9955 8.18515C25.237 8.11658 25.398 8.05486 25.4785 8ZM11.5915 24.2104C11.5378 24.2241 11.4573 24.2995 11.3499 24.4367C11.256 24.5738 11.1889 24.7178 11.1487 24.8687C11.0816 25.0881 11.1017 25.2664 11.2091 25.4036C11.4908 25.7464 11.8531 26.151 12.2959 26.6173C12.7386 27.0699 13.1814 27.502 13.6242 27.9134C14.0804 28.3249 14.4695 28.6403 14.7915 28.8597C14.55 29.5181 14.1676 30.0461 13.6443 30.4438C13.1345 30.8279 12.5642 31.013 11.9336 30.9993C11.303 30.9856 10.6858 30.6976 10.082 30.1352C10.0015 30.053 9.8472 29.8747 9.61911 29.6004C9.39101 29.3123 9.12937 28.9763 8.83419 28.5923L7.94865 27.4402C7.65346 27.0562 7.39853 26.7202 7.18386 26.4322C6.96918 26.1442 6.835 25.9659 6.78134 25.8973C6.52641 25.5544 6.28489 25.479 6.0568 25.671C5.8287 25.863 5.68782 26.2607 5.63415 26.8642C5.60732 27.2208 5.60732 27.6323 5.63415 28.0986C5.6744 28.5512 5.72807 28.9558 5.79516 29.3123C5.87566 29.6689 5.95617 29.8815 6.03667 29.9501C5.75491 30.1695 5.40606 30.3753 4.99012 30.5673C4.57418 30.7593 4.09786 30.8759 3.56117 30.917C3.35991 30.9307 3.12511 30.8759 2.85676 30.7524C2.58841 30.629 2.35361 30.4301 2.15235 30.1558C1.9645 29.8678 1.86387 29.5112 1.85046 29.086C1.85046 28.9763 1.84375 28.6883 1.83033 28.222C1.83033 27.7557 1.82362 27.1865 1.8102 26.5145V24.3955C1.8102 23.6686 1.8035 22.9829 1.79008 22.3383V20.7747V20.1781C1.79008 19.369 1.76995 18.6969 1.7297 18.162C1.68945 17.6134 1.52844 17.1951 1.24668 16.9071C0.991746 16.6465 0.797194 16.2694 0.663021 15.7756C0.542265 15.2819 0.488595 14.8156 0.502013 14.3767C0.555682 14.3904 0.71669 14.411 0.985037 14.4384C1.25338 14.4521 1.51502 14.4727 1.76995 14.5001H2.51462C2.85005 14.4864 3.20561 14.4727 3.5813 14.459C3.95698 14.4453 4.30583 14.4384 4.62785 14.4384C4.94987 14.4247 5.19138 14.411 5.35239 14.3973H6.01655C6.35198 14.3835 6.74108 14.3767 7.18386 14.3767C7.62663 14.3767 8.07611 14.3835 8.5323 14.3973C8.98849 14.3973 9.41114 14.411 9.80024 14.4384C10.1893 14.4658 10.4912 14.5001 10.7059 14.5413C11.5915 14.7058 12.2757 15.0076 12.7588 15.4465C13.2418 15.8853 13.5839 16.4134 13.7852 17.0305C13.9999 17.6477 14.1273 18.3198 14.1676 19.0466C14.1944 19.6638 14.1273 20.3084 13.9663 20.9805C13.8053 21.6525 13.5303 22.2765 13.1412 22.8526C12.7521 23.4286 12.2355 23.8812 11.5915 24.2104ZM5.6744 19.7873C5.6744 20.2261 5.77503 20.5553 5.97629 20.7747C6.17756 20.9805 6.3654 21.1039 6.53982 21.145C6.78134 21.1999 7.08994 21.2068 7.46562 21.1656C7.84131 21.1108 8.21699 21.0148 8.59268 20.8776C8.96836 20.7267 9.28367 20.5347 9.5386 20.3016C9.80695 20.0684 9.94112 19.801 9.94112 19.4992C9.94112 19.1015 9.78011 18.7998 9.4581 18.5941C9.13608 18.3746 8.72685 18.2375 8.23041 18.1826C7.74739 18.1277 7.26436 18.1415 6.78134 18.2237C6.40565 18.2786 6.12388 18.45 5.93604 18.7381C5.7482 19.0261 5.66099 19.3758 5.6744 19.7873ZM36.5276 15.2003C35.9507 14.8025 35.1658 14.5282 34.1729 14.3774C33.5423 14.2813 32.9184 14.2265 32.3012 14.2128C31.684 14.1991 31.1272 14.2059 30.6307 14.2333C30.1477 14.2608 29.7586 14.2882 29.4634 14.3156C29.2487 14.3293 28.967 14.3499 28.6181 14.3774C28.2693 14.3911 27.907 14.4116 27.5313 14.4391C27.169 14.4665 26.8336 14.4871 26.525 14.5008H25.8609C25.5925 14.4734 25.3376 14.4528 25.0961 14.4391C24.8545 14.4116 24.707 14.3911 24.6533 14.3774C24.6399 14.8437 24.707 15.3374 24.8545 15.8586C25.0156 16.3797 25.2369 16.7638 25.5187 17.0106C25.6797 17.1478 25.7803 17.4701 25.8206 17.9775C25.8743 18.485 25.9078 19.109 25.9212 19.8496V22.0715C25.9212 22.867 25.9145 23.6624 25.9011 24.4579C25.9011 25.2534 25.8944 25.9871 25.881 26.6592V28.3255C25.881 28.7644 25.8877 29.025 25.9011 29.1073C25.9816 29.5873 26.1627 29.9645 26.4445 30.2388C26.7263 30.4994 27.0416 30.6777 27.3904 30.7737C27.7527 30.8697 28.0814 30.8971 28.3766 30.856C28.7389 30.8011 29.0408 30.7119 29.2823 30.5885C29.5238 30.4651 29.8056 30.2525 30.1276 29.9508C30.0739 29.841 30.0001 29.6422 29.9062 29.3542C29.8123 29.0524 29.7653 28.7233 29.7653 28.3667V27.6055C29.7787 27.0706 29.9062 26.5906 30.1477 26.1654C30.4026 25.7265 30.7381 25.3699 31.154 25.0956C31.5834 24.8213 32.053 24.6705 32.5628 24.643H32.8848C33.0727 24.6293 33.2806 24.6156 33.5087 24.6019C33.7368 24.5882 33.9247 24.5745 34.0723 24.5608C34.9176 24.4785 35.622 24.2453 36.1855 23.8613C36.749 23.4636 37.1985 22.9972 37.534 22.4624C37.8828 21.9138 38.131 21.3583 38.2786 20.796C38.4262 20.22 38.5 19.7125 38.5 19.2736C38.5 18.9307 38.4597 18.5193 38.3792 18.0393C38.2987 17.5455 38.1176 17.0449 37.8358 16.5375C37.5541 16.03 37.118 15.5843 36.5276 15.2003ZM32.4823 20.7548C32.2006 20.796 31.9657 20.8097 31.7779 20.796C31.4559 20.7823 31.1406 20.7068 30.832 20.5697C30.5368 20.4325 30.2886 20.2611 30.0873 20.0554C29.8995 19.8359 29.7988 19.5959 29.7854 19.3353C29.7854 18.9376 29.98 18.5947 30.3691 18.3067C30.7582 18.005 31.2278 17.8473 31.7779 17.8335C32.1536 17.8198 32.5427 17.8541 32.9452 17.9364C33.3612 18.0187 33.71 18.1696 33.9918 18.389C34.2869 18.6084 34.4345 18.917 34.4345 19.3148C34.4345 19.6028 34.3339 19.8496 34.1327 20.0554C33.9314 20.2474 33.6765 20.3982 33.3679 20.508C33.0727 20.6177 32.7775 20.7 32.4823 20.7548Z" fill="url(#paint0_linear_509_13331)"/>
</g>
<defs>
<linearGradient id="paint0_linear_509_13331" x1="19.5" y1="8" x2="19.5" y2="31" gradientUnits="userSpaceOnUse">
<stop stop-color="#FDF76E"/>
<stop offset="1" stop-color="#FE001C"/>
</linearGradient>
<clipPath id="clip0_509_13331">
<rect width="38" height="38" fill="white" transform="translate(0.5)"/>
</clipPath>
</defs>
</svg>
