<svg width="39" height="38" viewBox="0 0 39 38" fill="none" xmlns="http://www.w3.org/2000/svg">
<g id="ic:baseline-whatsapp">
<path id="Vector" d="M29.4749 8.89682C28.1685 7.57717 26.6124 6.53086 24.8973 5.8189C23.1823 5.10695 21.3426 4.74362 19.4857 4.75008C11.7052 4.75008 5.364 11.0913 5.364 18.8718C5.364 21.3655 6.0195 23.788 7.24499 25.9255L5.25 33.25L12.7312 31.2835C14.7975 32.4093 17.1202 33.0077 19.4857 33.0077C27.2662 33.0077 33.6074 26.6665 33.6074 18.886C33.6074 15.1098 32.1397 11.5616 29.4749 8.89682ZM19.4857 30.6138C17.3767 30.6138 15.3105 30.0438 13.5007 28.975L13.0732 28.7185L8.62724 29.887L9.80999 25.555L9.52499 25.1133C8.35328 23.2422 7.73112 21.0795 7.72949 18.8718C7.72949 12.4023 13.002 7.12983 19.4715 7.12983C22.6064 7.12983 25.5562 8.35532 27.7649 10.5783C28.8586 11.667 29.7253 12.9619 30.3148 14.3879C30.9043 15.814 31.2049 17.3429 31.1992 18.886C31.2277 25.3555 25.9552 30.6138 19.4857 30.6138ZM25.9267 21.8358C25.5704 21.6648 23.8319 20.8098 23.5184 20.6815C23.1907 20.5675 22.9627 20.5105 22.7204 20.8525C22.4782 21.2088 21.8085 22.0068 21.609 22.2348C21.4095 22.477 21.1957 22.5055 20.8395 22.3203C20.4832 22.1493 19.3432 21.7645 18.0037 20.5675C16.9492 19.627 16.251 18.4728 16.0372 18.1165C15.8377 17.7603 16.0087 17.575 16.194 17.3898C16.3507 17.233 16.5502 16.9765 16.7212 16.777C16.8922 16.5775 16.9635 16.4208 17.0775 16.1928C17.1915 15.9506 17.1345 15.7511 17.049 15.5801C16.9635 15.4091 16.251 13.6706 15.966 12.9581C15.681 12.2741 15.3817 12.3596 15.168 12.3453H14.484C14.2417 12.3453 13.8712 12.4308 13.5435 12.7871C13.23 13.1433 12.318 13.9983 12.318 15.7368C12.318 17.4753 13.5862 19.1568 13.7572 19.3848C13.9282 19.627 16.251 23.1895 19.785 24.7143C20.6257 25.0848 21.2812 25.2985 21.7942 25.4553C22.6349 25.726 23.4044 25.6833 24.0172 25.5978C24.7012 25.498 26.1119 24.7428 26.3969 23.9163C26.6962 23.0898 26.6962 22.3915 26.5964 22.2348C26.4967 22.078 26.2829 22.0068 25.9267 21.8358Z" fill="url(#paint0_linear_509_13340)"/>
</g>
<defs>
<linearGradient id="paint0_linear_509_13340" x1="19.4287" y1="4.75" x2="19.4287" y2="33.25" gradientUnits="userSpaceOnUse">
<stop stop-color="#B7FFBD"/>
<stop offset="1" stop-color="#5FD669"/>
</linearGradient>
</defs>
</svg>
