<svg width="28" height="28" viewBox="0 0 28 28" fill="none" xmlns="http://www.w3.org/2000/svg">
<g id="featured_seasonal_and_gifts_FILL0_wght400_GRAD0_opsz24 2">
<path id="Vector" d="M5.68457 22.6843V13.6843C5.13457 13.6843 4.66374 13.4885 4.27207 13.0968C3.8804 12.7052 3.68457 12.2343 3.68457 11.6843V9.68433C3.68457 9.13433 3.8804 8.66349 4.27207 8.27183C4.66374 7.88016 5.13457 7.68433 5.68457 7.68433H8.88457C8.80124 7.53433 8.74707 7.37599 8.72207 7.20933C8.69707 7.04266 8.68457 6.86766 8.68457 6.68433C8.68457 5.85099 8.97624 5.14266 9.55957 4.55933C10.1429 3.97599 10.8512 3.68433 11.6846 3.68433C12.0679 3.68433 12.4262 3.75516 12.7596 3.89683C13.0929 4.03849 13.4012 4.23433 13.6846 4.48433C13.9679 4.21766 14.2762 4.01766 14.6096 3.88433C14.9429 3.75099 15.3012 3.68433 15.6846 3.68433C16.5179 3.68433 17.2262 3.97599 17.8096 4.55933C18.3929 5.14266 18.6846 5.85099 18.6846 6.68433C18.6846 6.86766 18.6679 7.03849 18.6346 7.19683C18.6012 7.35516 18.5512 7.51766 18.4846 7.68433H21.6846C22.2346 7.68433 22.7054 7.88016 23.0971 8.27183C23.4887 8.66349 23.6846 9.13433 23.6846 9.68433V11.6843C23.6846 12.2343 23.4887 12.7052 23.0971 13.0968C22.7054 13.4885 22.2346 13.6843 21.6846 13.6843V22.6843C21.6846 23.2343 21.4887 23.7052 21.0971 24.0968C20.7054 24.4885 20.2346 24.6843 19.6846 24.6843H7.68457C7.13457 24.6843 6.66374 24.4885 6.27207 24.0968C5.8804 23.7052 5.68457 23.2343 5.68457 22.6843ZM15.6846 5.68433C15.4012 5.68433 15.1637 5.78016 14.9721 5.97183C14.7804 6.16349 14.6846 6.40099 14.6846 6.68433C14.6846 6.96766 14.7804 7.20516 14.9721 7.39683C15.1637 7.58849 15.4012 7.68433 15.6846 7.68433C15.9679 7.68433 16.2054 7.58849 16.3971 7.39683C16.5887 7.20516 16.6846 6.96766 16.6846 6.68433C16.6846 6.40099 16.5887 6.16349 16.3971 5.97183C16.2054 5.78016 15.9679 5.68433 15.6846 5.68433ZM10.6846 6.68433C10.6846 6.96766 10.7804 7.20516 10.9721 7.39683C11.1637 7.58849 11.4012 7.68433 11.6846 7.68433C11.9679 7.68433 12.2054 7.58849 12.3971 7.39683C12.5887 7.20516 12.6846 6.96766 12.6846 6.68433C12.6846 6.40099 12.5887 6.16349 12.3971 5.97183C12.2054 5.78016 11.9679 5.68433 11.6846 5.68433C11.4012 5.68433 11.1637 5.78016 10.9721 5.97183C10.7804 6.16349 10.6846 6.40099 10.6846 6.68433ZM5.68457 9.68433V11.6843H12.6846V9.68433H5.68457ZM12.6846 22.6843V13.6843H7.68457V22.6843H12.6846ZM14.6846 22.6843H19.6846V13.6843H14.6846V22.6843ZM21.6846 11.6843V9.68433H14.6846V11.6843H21.6846Z" fill="url(#paint0_linear_677_5656)"/>
</g>
<defs>
<linearGradient id="paint0_linear_677_5656" x1="13.6846" y1="3.68433" x2="13.6846" y2="24.6843" gradientUnits="userSpaceOnUse">
<stop stop-color="#69DCFF"/>
<stop offset="1" stop-color="#D778FF"/>
</linearGradient>
</defs>
</svg>
