<svg width="60" height="60" viewBox="0 0 60 60" fill="none" xmlns="http://www.w3.org/2000/svg">
<path fill-rule="evenodd" clip-rule="evenodd" d="M17.2734 17.2723C20.6457 13.8973 25.227 12 30 12C34.773 12 39.3543 13.8973 42.7266 17.2723C46.1016 20.6462 48 25.2275 48 30C48 34.7725 46.1016 39.3538 42.7266 42.7277C39.3543 46.1027 34.773 48 30 48C25.227 48 20.6457 46.1027 17.2734 42.7277C13.8984 39.3538 12 34.7725 12 30C12.0011 25.2264 13.8979 20.6473 17.2734 17.2723ZM30.6438 25.288C28.8948 26.0164 25.3962 27.5237 20.148 29.8099C19.2955 30.1483 18.8483 30.4801 18.8093 30.8042C18.7396 31.3513 19.424 31.5677 20.3546 31.8611L20.7523 31.9874C21.3604 32.1852 22.1063 32.4049 22.7281 32.5345C23.0473 32.6016 23.3335 32.6444 23.551 32.6488C24.136 32.662 24.7859 32.4214 25.5027 31.9281C30.4076 28.619 32.9361 26.9458 33.0965 26.9095C33.2091 26.8843 33.364 26.8524 33.4678 26.9458C33.575 27.0392 33.5634 27.2161 33.5524 27.2644C33.5217 27.3984 32.9279 28.0071 32.161 28.7498C30.7542 30.1132 28.7646 31.9303 28.5938 32.1083C28.4526 32.2555 28.3087 32.395 28.1702 32.528C27.3166 33.3508 26.6766 33.9683 28.2054 34.9757C28.9124 35.4415 29.4831 35.8293 30.0472 36.2139C30.7114 36.6654 31.3661 37.1125 32.222 37.674C32.8839 38.1079 33.4519 38.5946 34.0583 38.8517C34.3797 38.9879 34.7115 39.0604 35.0735 39.0275C35.5547 38.9835 36.0524 38.532 36.3029 37.1829C36.8989 33.9946 38.0717 27.0875 38.3419 24.241C38.3672 23.9927 38.3364 23.673 38.3139 23.5334C38.2886 23.3928 38.2375 23.1929 38.0579 23.0457C37.8415 22.8699 37.5092 22.8336 37.3603 22.8358C36.6824 22.8479 35.6448 23.2094 30.6438 25.288Z" fill="url(#paint0_linear_504_79215)"/>
<defs>
<linearGradient id="paint0_linear_504_79215" x1="1812" y1="12" x2="1812" y2="3612" gradientUnits="userSpaceOnUse">
<stop stop-color="#2AABEE"/>
<stop offset="1" stop-color="#229ED9"/>
</linearGradient>
</defs>
</svg>
